Coordinates
version=1
nRows=6
nColumns=107
inDegrees=yes

Units are S.I. units (second, meters, Newtons, ...)
If the header above contains a line with 'inDegrees', this indicates whether rotational values are in degrees (yes) or radians (no).

endheader
time	sternoclavicular_r2	sternoclavicular_r3	unrotscap_r3	unrotscap_r2	acromioclavicular_r2	acromioclavicular_r3	acromioclavicular_r1	unrothum_r1	unrothum_r3	unrothum_r2	elv_angle	shoulder_elv	shoulder1_r2	shoulder_rot	elbow_flexion	pro_sup	deviation	flexion	proximal_distal_r1	proximal_distal_r3	cmc_flexion	cmc_abduction	mp_flexion	ip_flexion	mcp2_flexion	mcp2_abduction	pm2_flexion	md2_flexion	mcp3_flexion	mcp3_abduction	pm3_flexion	md3_flexion	mcp4_flexion	mcp4_abduction	pm4_flexion	md4_flexion	mcp5_flexion	mcp5_abduction	pm5_flexion	md5_flexion	bicpt_tx	bicpt_ty	bicpt_tz	bicpt2_tx	bicpt2_ty	bicpt2_tz	ptpt_tx	ptpt_ty	ptpt_tz	FCUpt_tx	FCUpt_ty	FCUpt_tz	EDCpt_tx	EDCpt_ty	EDCpt_tz	APLpt_tx	APLpt_ty	APLpt_tz	FPLpt_tx	FPLpt_ty	FPLpt_tz	FPLpt2_tx	FPLpt2_ty	FPLpt2_tz	PEC1pt2_tx	PEC1pt2_ty	PEC1pt2_tz	PEC1pt3_tx	PEC1pt3_ty	PEC1pt3_tz	PEC2pt2_tx	PEC2pt2_ty	PEC2pt2_tz	PEC2pt3_tx	PEC2pt3_ty	PEC2pt3_tz	PEC3pt2_tx	PEC3pt2_ty	PEC3pt2_tz	PEC3pt3_tx	PEC3pt3_ty	PEC3pt3_tz	DELT2pt2a_tx	DELT2pt2a_ty	DELT2pt2a_tz	DELT2pt2_tx	DELT2pt2_ty	DELT2pt2_tz	LAT1pt2_tx	LAT1pt2_ty	LAT1pt2_tz	LAT1pt3_tx	LAT1pt3_ty	LAT1pt3_tz	LAT2pt2_tx	LAT2pt2_ty	LAT2pt2_tz	LAT2pt3_tx	LAT2pt3_ty	LAT2pt3_tz	LAT3pt2_tx	LAT3pt2_ty	LAT3pt2_tz	LAT3pt3_tx	LAT3pt3_ty	LAT3pt3_tz
      0.00000000	     -0.32410398	      0.13727515	     -0.13727515	      0.32410398	     -0.06562446	      0.53035383	      0.23839040	     -0.23839040	     -0.53035383	      0.06562446	     98.44606098	     76.73449844	     -1.71820790	    -21.73394255	     30.76356952	     47.82587650	      0.23196068	     -0.21992886	      0.27076307	     -0.10996443	     34.17835748	     -8.45581049	    -28.37174471	      4.09630388	      5.66572107	      5.48632945	     27.39795995	    -12.70677276	     12.69837444	     -3.38401132	     15.10921119	     15.19933440	     12.80195657	     -6.68138164	      4.39205537	     20.50325386	      9.85350810	    -13.46830508	      0.99577756	      5.07470440	      0.00091756	     -0.03112598	     -0.00486794	      0.01651899	     -0.01855707	     -0.00659168	      0.00401621	     -0.06718501	     -0.00390263	      0.00857759	     -0.18332357	     -0.00041892	     -0.00573909	      0.00170804	      0.00007365	      0.00018452	      0.00007381	      0.00036904	      0.00023619	      0.00070857	      0.00039857	     -0.00001243	     -0.00020548	     -0.00024658	      0.00251519	      0.00882447	      0.00613877	     -0.00822765	      0.01986573	     -0.01884260	      0.00251519	      0.00882447	      0.00613877	      0.00055419	      0.01841630	     -0.00967708	      0.00396936	      0.00490718	      0.01601978	      0.00000000	      0.00787546	      0.00000000	     -0.00720452	     -0.03329427	     -0.00649421	      0.01475687	     -0.00048578	     -0.00392338	     -0.00089524	      0.01500587	     -0.00613877	      0.00247256	      0.02165620	     -0.01790473	     -0.00601087	      0.01300225	     -0.00549931	     -0.01253331	      0.02745392	     -0.03073646	     -0.02353193	      0.01453694	     -0.00737504	     -0.01560269	      0.03171695	     -0.03840991
      0.03333333	     -0.32399514	      0.13722905	     -0.13722905	      0.32399514	     -0.06560243	      0.53017573	      0.23831034	     -0.23831034	     -0.53017573	      0.06560243	     98.46199279	     76.70873042	     -1.71848596	    -21.72128835	     30.76117020	     47.82847422	      0.23191370	     -0.21989202	      0.27071699	     -0.10994601	     34.17670060	     -8.45511106	    -28.37265840	      4.09602576	      5.66445519	      5.48802138	     27.39732400	    -12.70694396	     12.69740196	     -3.38376658	     15.10858028	     15.19913772	     12.80142436	     -6.68174035	      4.39173305	     20.50312441	      9.85577129	    -13.46843973	      0.99623895	      5.07470626	      0.00091748	     -0.03112570	     -0.00486790	      0.01651893	     -0.01855642	     -0.00659136	      0.00401602	     -0.06718513	     -0.00390284	      0.00857786	     -0.18332351	     -0.00041892	     -0.00573940	      0.00170815	      0.00007361	      0.00018449	      0.00007379	      0.00036897	      0.00023614	      0.00070843	      0.00039849	     -0.00001243	     -0.00020550	     -0.00024660	      0.00251434	      0.00882151	      0.00613670	     -0.00822489	      0.01985905	     -0.01883627	      0.00251434	      0.00882151	      0.00613670	      0.00055401	      0.01841011	     -0.00967383	      0.00396839	      0.00490553	      0.01601743	      0.00000000	      0.00787014	      0.00000000	     -0.00720210	     -0.03328309	     -0.00648979	      0.01474971	     -0.00048538	     -0.00391881	     -0.00089494	      0.01500083	     -0.00613670	      0.00247173	      0.02164893	     -0.01789872	     -0.00600886	      0.01299788	     -0.00549746	     -0.01252910	      0.02744470	     -0.03072613	     -0.02352403	      0.01453206	     -0.00737257	     -0.01559746	      0.03170630	     -0.03839701
      0.06666667	     -0.32549289	      0.13786343	     -0.13786343	      0.32549289	     -0.06590569	      0.53262660	      0.23941199	     -0.23941199	     -0.53262660	      0.06590569	     98.25232758	     77.06333536	     -1.71482661	    -20.31839336	     30.54800676	     45.92602380	      0.22268479	     -0.22489954	      0.26162606	     -0.11244977	     33.44842948	     -8.13098361	    -28.28349631	      1.89197094	      3.75812395	      5.90935609	     28.79885896	    -12.38564099	     11.60531625	     -3.73405797	     14.32832713	     15.28234846	     11.23710383	     -7.04688140	      3.91709781	     21.47766900	      9.28122772	    -13.47700633	     -0.46067103	      5.07942284	      0.00091043	     -0.03110127	     -0.00486396	      0.01654531	     -0.01849852	     -0.00681280	      0.00415659	     -0.06709424	     -0.00374959	      0.00838228	     -0.18336680	     -0.00041526	     -0.00551111	      0.00162673	      0.00009436	      0.00018775	      0.00007510	      0.00037549	      0.00024031	      0.00072094	      0.00040553	     -0.00001203	     -0.00021466	     -0.00025759	      0.00252597	      0.00886229	      0.00616507	     -0.00826291	      0.01995086	     -0.01892335	      0.00252597	      0.00886229	      0.00616507	      0.00055657	      0.01849522	     -0.00971855	      0.00398172	      0.00492821	      0.01604964	      0.00000000	      0.00794360	      0.00000000	     -0.00723540	     -0.03343695	     -0.00655077	      0.01395931	     -0.00044174	     -0.00340951	     -0.00089907	      0.01507018	     -0.00616507	      0.00248315	      0.02174900	     -0.01798146	     -0.00603663	      0.01305797	     -0.00552288	     -0.01258702	      0.02757157	     -0.03086817	     -0.02363278	      0.01459923	     -0.00740665	     -0.01566956	      0.03185287	     -0.03857451
      0.10000000	     -0.32656397	      0.13831708	     -0.13831708	      0.32656397	     -0.06612256	      0.53437928	      0.24019981	     -0.24019981	     -0.53437928	      0.06612256	     98.09170140	     77.31692226	     -1.71202316	    -19.19733179	     30.40616894	     45.01741207	      0.22643002	     -0.22145791	      0.26533246	     -0.11072895	     33.20255868	     -8.41820791	    -27.09918208	     -0.42683327	      3.03527255	      6.13881246	     29.44115916	    -12.84854270	     11.37037633	     -3.77673462	     13.98393711	     15.45448128	     10.68766778	     -7.09367109	      4.15669811	     23.36792066	      8.89057159	    -13.49882915	      0.25024848	      5.04166703	      0.00090574	     -0.03108501	     -0.00486134	      0.01655498	     -0.01845998	     -0.00691677	      0.00422372	     -0.06705083	     -0.00367639	      0.00828927	     -0.18338712	     -0.00041256	     -0.00540208	      0.00158823	      0.00010358	      0.00018551	      0.00007420	      0.00037102	      0.00023745	      0.00071236	      0.00040070	     -0.00001187	     -0.00021762	     -0.00026114	      0.00253428	      0.00889145	      0.00618536	     -0.00829010	      0.02001651	     -0.01898562	      0.00253428	      0.00889145	      0.00618536	      0.00055840	      0.01855608	     -0.00975053	      0.00399123	      0.00494442	      0.01607249	      0.00000000	      0.00799635	      0.00000000	     -0.00725921	     -0.03354698	     -0.00659454	      0.01330876	     -0.00040741	     -0.00302467	     -0.00090203	      0.01511977	     -0.00618536	      0.00249133	      0.02182057	     -0.01804063	     -0.00605650	      0.01310093	     -0.00554105	     -0.01262844	      0.02766230	     -0.03096975	     -0.02371054	      0.01464727	     -0.00743102	     -0.01572112	      0.03195769	     -0.03870145
      0.13333333	     -0.32652162	      0.13829915	     -0.13829915	      0.32652162	     -0.06611399	      0.53430998	      0.24016866	     -0.24016866	     -0.53430998	      0.06611399	     98.09795813	     77.30689552	     -1.71213236	    -19.19308060	     30.40664007	     45.01779604	      0.22640831	     -0.22144101	      0.26531069	     -0.11072050	     33.20200968	     -8.41814016	    -27.09959417	     -0.42645897	      3.03451530	      6.13935705	     29.44080521	    -12.84858211	     11.36979407	     -3.77676893	     13.98401165	     15.45445080	     10.68783674	     -7.09381116	      4.15667216	     23.36760267	      8.89133703	    -13.49895532	      0.25001989	      5.04167766	      0.00090576	     -0.03108507	     -0.00486135	      0.01655498	     -0.01846011	     -0.00691672	      0.00422369	     -0.06705085	     -0.00367643	      0.00828931	     -0.18338711	     -0.00041256	     -0.00540212	      0.00158825	      0.00010357	      0.00018550	      0.00007420	      0.00037100	      0.00023744	      0.00071232	      0.00040068	     -0.00001187	     -0.00021762	     -0.00026114	      0.00253395	      0.00889030	      0.00618456	     -0.00828902	      0.02001391	     -0.01898315	      0.00253395	      0.00889030	      0.00618456	      0.00055833	      0.01855367	     -0.00974927	      0.00399085	      0.00494378	      0.01607159	      0.00000000	      0.00799426	      0.00000000	     -0.00725826	     -0.03354263	     -0.00659281	      0.01330626	     -0.00040728	     -0.00302325	     -0.00090191	      0.01511781	     -0.00618456	      0.00249100	      0.02181774	     -0.01803829	     -0.00605571	      0.01309924	     -0.00554033	     -0.01262680	      0.02765871	     -0.03096573	     -0.02370747	      0.01464537	     -0.00743006	     -0.01571908	      0.03195354	     -0.03869643
      0.16666667	     -0.32420369	      0.13731738	     -0.13731738	      0.32420369	     -0.06564465	      0.53051698	      0.23846373	     -0.23846373	     -0.53051698	      0.06564465	     98.54496467	     76.75810468	     -1.71993409	    -21.80532386	     30.56510738	     47.22303651	      0.20170638	     -0.23327179	      0.24044279	     -0.11663590	     32.98918946	     -8.50270120	    -28.55145136	      3.56015767	      2.29100176	      6.16210488	     29.37793958	    -12.06718561	     10.34949483	     -3.87369980	     15.03683731	     15.07540520	     10.17745771	     -7.26658632	      4.54629365	     20.85055224	      9.14002848	    -13.47777693	     -1.74366687	      5.11027373	      0.00091100	     -0.03110323	     -0.00486428	      0.01652822	     -0.01850316	     -0.00666238	      0.00406075	     -0.06715621	     -0.00385407	      0.00851549	     -0.18333740	     -0.00041805	     -0.00566675	      0.00168212	      0.00008043	      0.00019310	      0.00007724	      0.00038620	      0.00024717	      0.00074150	      0.00041709	     -0.00001171	     -0.00022013	     -0.00026415	      0.00251596	      0.00882719	      0.00614065	     -0.00823018	      0.01987184	     -0.01884839	      0.00251596	      0.00882719	      0.00614065	      0.00055436	      0.01842196	     -0.00968006	      0.00397025	      0.00490869	      0.01602193	      0.00000000	      0.00788035	      0.00000000	     -0.00720674	     -0.03330452	     -0.00649827	      0.01479623	     -0.00048802	     -0.00395027	     -0.00089551	      0.01501049	     -0.00614065	      0.00247332	      0.02166286	     -0.01791024	     -0.00601272	      0.01300625	     -0.00550100	     -0.01253717	      0.02746237	     -0.03074591	     -0.02353917	      0.01454141	     -0.00737731	     -0.01560749	      0.03172671	     -0.03842173
